<svg width="73" height="74" viewBox="0 0 73 74" fill="none" xmlns="http://www.w3.org/2000/svg">
<path d="M29.095 6.74711V9.9294H21.0675V0.0725098H29.095V3.56005H24.508V6.74711H29.095ZM37.347 3.56005H40.5538V0.0725098H32.5256C32.5256 0.0725098 32.5256 1.82307 32.5256 3.56005C33.5996 4.6488 34.1596 5.16998 35.713 6.74465C34.805 6.74465 32.5256 6.74769 32.5256 6.74769V9.9294H40.5538V6.74711L37.347 3.56005ZM48.7254 3.56005H51.932V0.0725098H43.904C43.904 0.0725098 43.904 1.82307 43.904 3.56005C44.9778 4.6488 45.5381 5.16998 47.0913 6.74465C46.1838 6.74465 43.904 6.74769 43.904 6.74769V9.9294H51.9321V6.74711L48.7254 3.56005ZM62.5055 14.6139L57.6288 68.1607L36.4998 73.9275L15.3703 68.1607L10.4944 14.6139H62.5055ZM52.6793 25.5018H36.4807H19.9958L20.7841 31.968H36.4807H37.3624L36.4807 32.34L21.3578 38.7249L21.8594 45.0453L36.4807 45.0934L44.3172 45.1187L43.8152 53.5465L36.4807 55.6399V55.6332L36.4205 55.65L29.3367 53.8373L28.9068 48.606H28.8834H22.3127H22.2896L23.1496 58.7052L36.4807 62.7014V62.6941L36.5046 62.7014L49.7644 58.7779L51.4849 38.7251H36.4807H36.4436L36.4807 38.7089L52.0339 31.9681L52.6793 25.5018Z" fill="#0F4782" fill-opacity="0.81"/>
</svg>
