<svg width="74" height="74" viewBox="0 0 74 74" fill="none" xmlns="http://www.w3.org/2000/svg">
<path d="M15.706 0.0725098H19.0348V3.36146H22.08V0.0725098H25.4091V10.032H22.0803V6.69681H19.0351V10.032H15.7063V0.0725098H15.706ZM29.7865 3.37534H26.8561V0.0725098H36.0475V3.37534H33.1156V10.032H29.7868V3.37534H29.7865ZM37.5061 0.0725098H40.9777L43.1126 3.57205L45.2457 0.0725098H48.7178V10.032H45.4025V5.09569L43.1124 8.63671H43.0554L40.7637 5.09569V10.032H37.5061V0.0725098ZM50.3748 0.0725098H53.7046V6.74017H58.3861V10.032H50.3748V0.0725098ZM10.8379 14.5871L15.5996 67.9961L36.9677 73.9277L58.395 67.9876L63.1618 14.5869L10.8379 14.5871ZM53.2292 27.2616L52.931 30.5825L52.8001 32.055H52.7785H36.9999H36.9771H27.7334L28.3321 38.7622H36.9771H36.9999H50.4384H52.2037L52.0439 40.5215L50.5046 57.7669L50.4061 58.8729L36.9999 62.5886V62.5898L36.9699 62.5983L23.5517 58.8732L22.6338 48.5882H25.6646H29.2095L29.6759 53.8124L36.971 55.7827L36.9771 55.7808V55.7802L44.2833 53.8088L45.0431 45.3131H36.9999H36.9771H22.3413L20.7313 27.2616L20.5745 25.5045H36.9771H36.9999H53.386L53.2292 27.2616Z" fill="#0F4782" fill-opacity="0.81"/>
</svg>
