<svg width="74" height="74" viewBox="0 0 74 74" fill="none" xmlns="http://www.w3.org/2000/svg">
<path d="M33.0987 51.3629C34.3706 51.4208 35.6702 51.4624 36.986 51.4624C38.3157 51.4624 39.6292 51.4346 40.9173 51.3629C39.6292 53.028 38.3573 54.501 37.0115 55.9047L37.03 55.8862C35.691 54.4987 34.4053 53.0233 33.1935 51.4878L33.0987 51.3629ZM19.9221 49.5129C22.4265 50.1489 25.4813 50.69 28.5986 51.023L28.9015 51.0484C30.8094 53.6685 32.738 55.9741 34.8077 58.1432L34.7822 58.1154C31.7505 61.4986 27.6597 63.8759 23.0324 64.7292L22.9052 64.7477C22.896 64.7477 22.8867 64.7477 22.8775 64.7477C22.304 64.7477 21.7629 64.6066 21.2888 64.3569L21.3073 64.3661C19.3833 63.2677 18.5485 59.0659 19.1983 53.6662C19.3532 52.3365 19.6076 50.9374 19.9198 49.5106L19.9221 49.5129ZM54.1078 49.4829C54.3807 50.579 54.6374 51.9758 54.82 53.3956L54.8409 53.5945C55.5045 58.9919 54.6859 63.1891 52.7781 64.3106C52.3526 64.5465 51.8439 64.6853 51.3027 64.6853C51.2495 64.6853 51.1964 64.6829 51.1432 64.6806H51.1501C46.4025 63.8134 42.314 61.4524 39.2893 58.1108L39.2731 58.0923C41.3058 55.9579 43.2205 53.6569 44.9757 51.2358L45.1099 51.0415C48.5231 50.6854 51.5825 50.135 54.5634 49.3834L54.1078 49.4806V49.4829ZM22.6254 40.8526C23.2035 41.9858 23.8094 43.1143 24.4754 44.2474C25.1399 45.3743 25.819 46.4751 26.5127 47.5496C24.5055 47.2559 22.5676 46.8859 20.7153 46.435C21.2356 44.6151 21.8877 42.7304 22.6231 40.848L22.6254 40.8526ZM51.3652 40.7948C52.1306 42.6934 52.7804 44.5873 53.3192 46.4234C51.4692 46.8767 49.5152 47.2606 47.494 47.5496C48.1878 46.4651 48.8815 45.3481 49.5314 44.2034C50.1812 43.0773 50.7894 41.9256 51.3698 40.7925L51.3652 40.7948ZM17.6189 28.4253C18.6271 31.8431 19.7094 34.7014 20.9697 37.4579L20.7962 37.037C19.7186 39.3611 18.6525 42.2031 17.7784 45.1284L17.6582 45.6025C16.0255 45.1007 14.712 44.6081 13.4332 44.0555L13.6992 44.1572C8.69491 42.0274 5.45741 39.2269 5.45741 37.0069C5.45741 34.7869 8.69491 31.9726 13.6992 29.8521C14.9132 29.3318 16.2452 28.8623 17.6189 28.4253ZM56.3278 28.4137C57.7269 28.8461 59.0565 29.3294 60.3007 29.8521C65.3049 31.9911 68.5424 34.7869 68.5424 37.0069C68.5285 39.2269 65.291 42.0343 60.2868 44.1595C59.0727 44.6798 57.743 45.1469 56.3717 45.584C55.3542 42.1546 54.272 39.2986 53.0163 36.5375L53.192 36.9723C54.265 34.6505 55.3334 31.8084 56.2052 28.8831L56.3278 28.4068V28.4137ZM47.4755 26.4643C49.4851 26.7626 51.4207 27.1279 53.273 27.5835C52.7527 29.4104 52.1029 31.2881 51.3652 33.1705C50.787 32.0443 50.1812 30.9089 49.5152 29.7781C48.8654 28.6449 48.1716 27.5419 47.4779 26.4666L47.4755 26.4643ZM26.4965 26.4643C25.8028 27.5534 25.109 28.6681 24.4615 29.8174C23.8117 30.9436 23.2035 32.0767 22.6254 33.2098C21.86 31.3136 21.2102 29.4243 20.6714 27.5835C22.5214 27.1511 24.4708 26.7649 26.4942 26.4689L26.4965 26.4643ZM36.9999 25.7289C39.139 25.7289 41.2688 25.826 43.3639 25.9971C44.5371 27.6791 45.6764 29.4705 46.7818 31.3714C47.8563 33.2214 48.8368 35.0961 49.7233 36.9954C48.833 38.8893 47.8571 40.7809 46.7957 42.6309C45.6972 44.5388 44.5618 46.3541 43.3847 48.0353C41.2804 48.2179 39.1482 48.3174 36.9976 48.3174C34.8585 48.3174 32.7287 48.2156 30.6336 48.0491C29.4612 46.3679 28.3165 44.5688 27.2157 42.6749C26.1412 40.8249 25.1607 38.9502 24.2742 37.0509C25.1507 35.1523 26.1404 33.2561 27.2019 31.4038C28.3003 29.4959 29.4357 27.6876 30.6128 26.0064C32.7172 25.8214 34.8493 25.7243 36.9999 25.7243V25.7289ZM36.956 18.1416C38.2972 19.5291 39.583 21.0021 40.7924 22.5376L40.8849 22.6602C39.613 22.6024 38.3134 22.5631 36.9976 22.5631C35.6679 22.5631 34.3544 22.5908 33.0664 22.6602C34.3521 20.9952 35.624 19.5221 36.9722 18.1184L36.9537 18.1369L36.956 18.1416ZM22.8474 9.32632C27.595 10.1958 31.6812 12.5569 34.7082 15.8961L34.7244 15.9146C32.6917 18.0514 30.777 20.3523 29.0218 22.7781L28.8877 22.9724C25.4767 23.3262 22.4173 23.8719 19.4388 24.6235L19.892 24.5264C19.5683 23.1111 19.3278 21.7398 19.159 20.424C18.4953 15.0266 19.3139 10.8294 21.2217 9.71251C21.6981 9.48819 22.2554 9.34944 22.8428 9.33094H22.8497L22.8474 9.32632ZM51.083 9.26851V9.28701C51.1131 9.28701 51.1478 9.28469 51.1848 9.28469C51.7375 9.28469 52.2578 9.42113 52.7157 9.66163L52.6972 9.65238C54.6212 10.7554 55.456 14.9549 54.8062 20.3569C54.6512 21.6866 54.3969 23.088 54.0847 24.5171C51.5756 23.8743 48.5208 23.3308 45.4035 23.0001L45.1075 22.9747C43.1974 20.3523 41.2688 18.0468 39.1991 15.8753L39.2269 15.9031C42.2585 12.5268 46.3424 10.1496 50.9605 9.29163L51.09 9.27082L51.083 9.26851ZM51.0969 6.11888C45.4498 6.97682 40.5612 9.71945 36.9907 13.6761L36.9722 13.6969C33.3762 9.74257 28.4876 7.01845 22.9792 6.19288L22.8497 6.1767C22.8197 6.1767 22.7827 6.1767 22.7457 6.1767C21.6102 6.1767 20.5442 6.47501 19.6215 6.99763L19.6539 6.98145C15.681 9.27313 14.7907 16.4141 16.8419 25.3751C8.0451 28.0923 2.32397 32.4351 2.32397 37.0116C2.32397 41.6065 8.07516 45.9609 16.8974 48.6573C14.8624 57.6529 15.7712 64.8055 19.7533 67.0949C20.6274 67.5967 21.6773 67.8904 22.7942 67.8904C22.8451 67.8904 22.896 67.8904 22.9445 67.8881H22.9376C28.5847 67.0301 33.4734 64.2852 37.0438 60.3262L37.0624 60.3054C40.6583 64.2621 45.5469 66.9862 51.0553 67.8118L51.1848 67.8279C51.2195 67.8279 51.2634 67.8279 51.305 67.8279C52.4335 67.8279 53.495 67.5319 54.413 67.0163L54.3807 67.0324C58.3512 64.7431 59.2439 57.6021 57.1927 48.6388C65.957 45.9448 71.6782 41.5926 71.6782 37.0093C71.6782 32.4143 65.927 28.0599 57.1048 25.3566C59.1398 16.3702 58.231 9.2107 54.2489 6.91901C53.3655 6.41257 52.3064 6.11426 51.1779 6.11426C51.1478 6.11426 51.1177 6.11426 51.0877 6.11426H51.0923L51.0969 6.11888ZM43.4449 37.0116C43.4449 40.5798 40.5519 43.4727 36.9837 43.4727C33.4155 43.4727 30.5226 40.5798 30.5226 37.0116C30.5226 33.4434 33.4155 30.5504 36.9837 30.5504C38.769 30.5504 40.3831 31.2743 41.5532 32.4421C42.7234 33.6122 43.4449 35.2263 43.4449 37.0116Z" fill="#0F4782" fill-opacity="0.81"/>
</svg>
