<svg width="73" height="74" viewBox="0 0 73 74" fill="none" xmlns="http://www.w3.org/2000/svg">
<g clip-path="url(#clip0_258_33)">
<path d="M9.125 9.25H63.875V64.75H9.125V9.25ZM41.7013 55.0683C42.5942 56.781 43.9564 58.1956 45.6238 59.1419C47.2912 60.0882 49.1929 60.526 51.1 60.4025C55.9667 60.4025 59.6167 57.8433 59.6167 53.1258C59.6167 48.4083 57.1529 46.9592 52.7729 44.9242L51.4954 44.3692C49.275 43.4133 48.4538 42.7658 48.4538 41.2858C48.4566 40.9697 48.5241 40.6577 48.6522 40.3695C48.7803 40.0812 48.966 39.8231 49.1976 39.6115C49.4293 39.3999 49.7018 39.2394 49.9978 39.1401C50.2939 39.0409 50.6071 39.0051 50.9175 39.035C51.6297 39.0271 52.3275 39.2379 52.9192 39.6397C53.511 40.0414 53.969 40.6153 54.2329 41.2858L58.2175 38.6033C57.5277 37.2727 56.4691 36.1756 55.1721 35.447C53.8751 34.7184 52.3962 34.3901 50.9175 34.5025C49.9678 34.4083 49.0091 34.5156 48.1026 34.8175C47.196 35.1194 46.3614 35.6093 45.6518 36.2561C44.9422 36.9029 44.3733 37.6923 43.9811 38.5742C43.589 39.4561 43.3823 40.4111 43.3742 41.3783C43.3742 45.6333 45.8379 47.545 49.4575 49.2408L50.735 49.7958C53.1075 50.8442 54.5067 51.4917 54.5067 53.28C54.5067 55.0683 53.1379 55.8392 51.0088 55.8392C49.9617 55.8617 48.9296 55.5843 48.031 55.0389C47.1325 54.4935 46.4039 53.7021 45.9292 52.7558L41.7317 55.2225M39.5417 34.6875H24.3333V39.3125H28.8958V61.6667H34.2188V39.3125H39.5417V34.6875Z" fill="#0F4782" fill-opacity="0.81"/>
</g>
<defs>
<clipPath id="clip0_258_33">
<rect width="73" height="74" fill="white"/>
</clipPath>
</defs>
</svg>
